<mxfile host="app.diagrams.net" modified="2024-01-03T13:20:34.723Z" agent="5.0 (Windows NT 10.0; Win64; x64) AppleWebKit/537.36 (KHTML, like Gecko) Chrome/120.0.0.0 Safari/537.36" etag="w-njmg3DmWrm2b6FexPY" version="16.1.0" type="github">
  <diagram id="-cj11i8ElzjxEUUUS1FS" name="Page-1">
    <mxGraphModel dx="1038" dy="680" grid="1" gridSize="10" guides="1" tooltips="1" connect="1" arrows="1" fold="1" page="1" pageScale="1" pageWidth="850" pageHeight="1100" math="0" shadow="0">
      <root>
        <mxCell id="0" />
        <mxCell id="1" parent="0" />
        <mxCell id="e08KyJqX-MXGUBv71Hv4-2" value="Products" style="swimlane;" vertex="1" parent="1">
          <mxGeometry x="120" y="160" width="200" height="200" as="geometry" />
        </mxCell>
        <mxCell id="e08KyJqX-MXGUBv71Hv4-11" value="Product_id" style="text;html=1;align=center;verticalAlign=middle;resizable=0;points=[];autosize=1;strokeColor=none;fillColor=none;" vertex="1" parent="e08KyJqX-MXGUBv71Hv4-2">
          <mxGeometry x="20" y="40" width="70" height="20" as="geometry" />
        </mxCell>
        <mxCell id="e08KyJqX-MXGUBv71Hv4-12" value="Product_name" style="text;html=1;align=center;verticalAlign=middle;resizable=0;points=[];autosize=1;strokeColor=none;fillColor=none;" vertex="1" parent="e08KyJqX-MXGUBv71Hv4-2">
          <mxGeometry x="20" y="70" width="90" height="20" as="geometry" />
        </mxCell>
        <mxCell id="e08KyJqX-MXGUBv71Hv4-13" value="Product_slug" style="text;html=1;align=center;verticalAlign=middle;resizable=0;points=[];autosize=1;strokeColor=none;fillColor=none;" vertex="1" parent="e08KyJqX-MXGUBv71Hv4-2">
          <mxGeometry x="20" y="100" width="90" height="20" as="geometry" />
        </mxCell>
        <mxCell id="e08KyJqX-MXGUBv71Hv4-3" value="Category" style="swimlane;" vertex="1" parent="1">
          <mxGeometry x="600" y="154" width="200" height="200" as="geometry">
            <mxRectangle x="600" y="160" width="80" height="23" as="alternateBounds" />
          </mxGeometry>
        </mxCell>
        <mxCell id="e08KyJqX-MXGUBv71Hv4-8" value="Category_id" style="text;html=1;align=left;verticalAlign=middle;resizable=0;points=[];autosize=1;strokeColor=none;fillColor=none;" vertex="1" parent="e08KyJqX-MXGUBv71Hv4-3">
          <mxGeometry x="20" y="40" width="80" height="20" as="geometry" />
        </mxCell>
        <mxCell id="e08KyJqX-MXGUBv71Hv4-10" value="Category_name" style="text;html=1;align=center;verticalAlign=middle;resizable=0;points=[];autosize=1;strokeColor=none;fillColor=none;" vertex="1" parent="e08KyJqX-MXGUBv71Hv4-3">
          <mxGeometry x="18" y="66" width="100" height="20" as="geometry" />
        </mxCell>
        <mxCell id="e08KyJqX-MXGUBv71Hv4-4" value="Association" style="swimlane;gradientColor=none;rounded=1;startSize=23;" vertex="1" parent="1">
          <mxGeometry x="380" y="210" width="170" height="100" as="geometry" />
        </mxCell>
        <mxCell id="e08KyJqX-MXGUBv71Hv4-5" value="" style="endArrow=none;html=1;rounded=0;exitX=1;exitY=0.5;exitDx=0;exitDy=0;" edge="1" parent="1" source="e08KyJqX-MXGUBv71Hv4-4">
          <mxGeometry width="50" height="50" relative="1" as="geometry">
            <mxPoint x="540" y="285" as="sourcePoint" />
            <mxPoint x="600" y="260" as="targetPoint" />
          </mxGeometry>
        </mxCell>
      </root>
    </mxGraphModel>
  </diagram>
</mxfile>
